Coordinates
version=1
nRows=16
nColumns=28
inDegrees=yes

Units are S.I. units (second, meters, Newtons, ...)
Angles are in degrees.

endheader
time	pelvis_tilt	pelvis_list	pelvis_rotation	pelvis_tx	pelvis_ty	pelvis_tz	hip_flexion_r	hip_adduction_r	hip_rotation_r	knee_angle_r	ankle_angle_r	subtalar_angle_r	mtp_angle_r	hip_flexion_l	hip_adduction_l	hip_rotation_l	knee_angle_l	socket_flexion	socket_adduction	socket_rotation	socket_tx	socket_ty	socket_tz	foot_flex	lumbar_extension	lumbar_bending	lumbar_rotation
      0.00000000	     -0.05594606	     -6.52013234	     -8.28254477	     -0.90934898	      0.98910383	      0.31577958	    -26.05049540	      7.72073790	      3.28845870	     -3.68970935	     13.63368677	      1.78460442	      4.88717904	     24.58963848	     -8.93377714	      5.93023919	     -0.40560952	      0.16136892	     -0.19384891	      1.05159591	     -0.01561604	     -0.02354621	      0.00849682	     -0.88643317	    -11.44040068	      4.61212601	     11.27236241
      0.00416667	     -0.16954148	     -6.62271263	     -8.38446664	     -0.90406778	      0.98847548	      0.31522783	    -25.93989055	      7.73665698	      3.39418378	     -4.25268302	     13.33937113	      1.48452458	      4.88733647	     24.47546383	     -8.78481161	      5.87041975	     -0.42029245	      0.17383937	     -0.48289050	      1.29130450	     -0.01499108	     -0.02376317	      0.01061893	     -1.27487423	    -11.35664922	      4.75975823	     11.40049620
      0.00833333	     -0.23159526	     -6.65774575	     -8.34518744	     -0.89812506	      0.98761903	      0.31484661	    -26.08170621	      7.74101922	      3.45688540	     -4.47247798	     13.29482398	      1.46178299	      4.88997722	     24.38700768	     -8.72553915	      5.87547763	     -0.48245806	      0.22431340	     -0.48290518	      1.32486699	     -0.01403685	     -0.02424673	      0.01019887	     -1.34189030	    -11.21654614	      4.76477183	     11.41226780
      0.01250000	     -0.36436578	     -6.75584554	     -8.45078555	     -0.89231330	      0.98686182	      0.31424370	    -25.92272707	      7.74720852	      3.47515262	     -5.13460763	     13.02593283	      1.18854786	      4.90605206	     24.12637999	     -8.62028515	      5.80408018	     -0.40151535	      0.15412134	     -0.74355053	      1.66426383	     -0.01455506	     -0.02480671	      0.01185462	     -1.91159310	    -11.10137823	      4.88803390	     11.50269289
      0.01666667	     -0.48125667	     -6.79889398	     -8.53603559	     -0.88607601	      0.98619244	      0.31403207	    -25.81562470	      7.71956948	      3.53420130	     -5.72992789	     12.79208974	      0.97405304	      4.95000336	     23.90583181	     -8.51839397	      5.66497923	     -0.37160713	      0.12417873	     -0.89495015	      1.91977581	     -0.01438690	     -0.02525582	      0.01314261	     -2.27080174	    -10.97283664	      4.92507712	     11.59746453
      0.02083333	     -0.54414509	     -6.82110107	     -8.49990425	     -0.87960092	      0.98537010	      0.31361660	    -25.96598208	      7.70684271	      3.59987508	     -5.97655032	     12.74056797	      0.96043933	      4.95573530	     23.79087905	     -8.45838209	      5.67108032	     -0.45744022	      0.20003474	     -0.89929202	      1.96228042	     -0.01360369	     -0.02575749	      0.01248317	     -2.34506195	    -10.81411408	      4.93711512	     11.60935405
      0.02500000	     -0.81536788	     -6.55762178	     -9.13509091	     -0.87283290	      0.98498873	      0.31405760	    -25.49671820	      7.18101239	      3.89934337	     -6.95311604	     12.32746236	      0.42850764	      5.86355074	     23.52174555	     -8.11717180	      4.13270390	     -0.35951882	      0.09419082	     -1.29376891	      3.09987331	     -0.01332021	     -0.02591933	      0.01543803	     -2.87572568	    -10.42203158	      4.54152824	     12.48068389
      0.02916667	     -0.83512284	     -6.65029912	     -9.12159763	     -0.86644107	      0.98437280	      0.31351901	    -25.51461105	      7.20892193	      3.91186969	     -7.51208198	     11.98663178	      0.40222594	      5.91067426	     23.30516579	     -8.05320209	      4.17072509	     -0.39709764	      0.12219230	     -1.40851911	      3.40721579	     -0.01249632	     -0.02659265	      0.01591120	     -3.26626546	    -10.41772883	      4.64684583	     12.43447262
      0.03333333	     -0.87881229	     -6.71488471	     -9.13756586	     -0.85986599	      0.98377079	      0.31303496	    -25.47841726	      7.19101320	      3.88870064	     -8.12922223	     11.65494128	      0.32988756	      5.97941730	     23.04828037	     -7.96486684	      4.11826965	     -0.41480871	      0.13667141	     -1.51815886	      3.68044200	     -0.01213975	     -0.02734649	      0.01649081	     -3.59416203	    -10.35351422	      4.71224266	     12.39700793
      0.03750000	     -0.92885627	     -6.71251040	     -9.20492898	     -0.85316990	      0.98331083	      0.31260423	    -25.35015227	      7.09690069	      3.83141252	     -8.87913513	     11.25122019	      0.23001079	      6.14341349	     22.76561719	     -7.81117886	      3.88623261	     -0.43107024	      0.15346036	     -1.64982378	      3.94814568	     -0.01194435	     -0.02802625	      0.01714603	     -3.92497100	    -10.26589640	      4.71991678	     12.38162201
      0.04166667	     -0.99298925	     -6.67622532	     -9.27228183	     -0.84642580	      0.98284674	      0.31226716	    -25.22231568	      6.96907647	      3.82323324	     -9.59595157	     10.87616670	      0.16314753	      6.33029836	     22.49297004	     -7.63920948	      3.72251777	     -0.44273584	      0.16380313	     -1.78172571	      4.26914515	     -0.01169299	     -0.02871654	      0.01787569	     -4.25572611	    -10.14477582	      4.66113756	     12.39799938
      0.04583333	     -1.05563945	     -6.65005843	     -9.18283550	     -0.83966847	      0.98234243	      0.31195564	    -25.21155937	      6.94623727	      3.97171093	    -10.09401757	     10.66825788	      0.16737322	      6.37554560	     22.27846548	     -7.53122946	      3.80767700	     -0.49455919	      0.20576482	     -1.77619370	      4.52248483	     -0.01152159	     -0.02945947	      0.01760472	     -4.41522036	    -10.01615754	      4.54137770	     12.39013076
      0.05000000	     -1.18431872	     -6.30475304	     -9.51378002	     -0.83270873	      0.98214162	      0.31191136	    -24.75689839	      6.38639111	      3.75589380	    -11.19159721	      9.94557253	      0.02332643	      7.08339030	     22.02089184	     -7.05714138	      3.06052435	     -0.51197066	      0.22429905	     -2.02704262	      5.00376683	     -0.01103530	     -0.02974760	      0.01920552	     -4.56162229	     -9.74356431	      4.12055015	     12.52206423
      0.05416667	     -1.10220907	     -5.65588942	     -9.66118268	     -0.82520088	      0.98215646	      0.31160333	    -24.57596537	      5.50344363	      3.04420893	    -12.03478715	      9.02483980	      0.67897996	     10.89931616	     22.03175790	     -6.05501738	      1.07045260	     -0.78029664	      0.40215433	     -2.42329871	      6.88498524	     -0.00620682	     -0.02985690	      0.02144949	     -5.02779203	     -9.55546844	      3.30444218	     12.83923932
      0.05833333	     -1.11263066	     -5.67258047	     -9.51716723	     -0.81852517	      0.98192382	      0.31122412	    -24.52956165	      5.54133109	      3.22718302	    -12.67057159	      8.71815799	      0.68269632	     10.91859650	     21.79076764	     -5.99965958	      1.24520125	     -0.86618788	      0.47185160	     -2.37583095	      7.09054016	     -0.00602965	     -0.03070159	      0.02085985	     -5.19129359	     -9.52060246	      3.24451647	     12.76226750
      0.06250000	     -1.09171863	     -5.68894769	     -9.59764289	     -0.81207718	      0.98188750	      0.31079614	    -24.26050236	      5.41843877	      3.16188924	    -13.73586869	      8.01967463	      0.50322203	     10.95391359	     21.50977328	     -5.94761004	      1.25872119	     -0.94995272	      0.54939565	     -2.38625241	      7.14873534	     -0.00550002	     -0.03160969	      0.02075349	     -5.49560266	     -9.54860815	      3.28101640	     12.60120491
